<svg width="203px" height="250px"
 viewBox="0.00 0.00 203.00 250.00" xmlns="http://www.w3.org/2000/svg" xmlns:xlink="http://www.w3.org/1999/xlink">
<g id="graph0" class="graph" transform="scale(1.0 1.0) rotate(0) translate(4 246)">
<title>de.uniks.pmws2021.rps.model</title>
<polygon fill="white" stroke="transparent" points="-4,4 -4,-246 199,-246 199,4 -4,4"/>
<!-- Game -->
<g id="node1" class="node">
<title>Game</title>
<polygon fill="none" stroke="black" points="8.5,-215.5 8.5,-237.5 187.5,-237.5 187.5,-215.5 8.5,-215.5"/>
<text text-anchor="start" x="81.29" y="-221.9" font-family="Times,serif" font-size="14.00">Game</text>
<polygon fill="none" stroke="black" points="8.5,-142.5 8.5,-215.5 187.5,-215.5 187.5,-142.5 8.5,-142.5"/>
<text text-anchor="start" x="11.5" y="-199.9" font-family="Times,serif" font-size="14.00">gameModeExtension :Boolean</text>
<text text-anchor="start" x="11.5" y="-183.1" font-family="Times,serif" font-size="14.00">maxRounds :int</text>
<text text-anchor="start" x="11.5" y="-166.3" font-family="Times,serif" font-size="14.00">currentRound :int</text>
<text text-anchor="start" x="11.5" y="-149.5" font-family="Times,serif" font-size="14.00">bestOf :boolean</text>
</g>
<!-- Player -->
<g id="node2" class="node">
<title>Player</title>
<polygon fill="none" stroke="black" points="38.5,-76.5 38.5,-98.5 157.5,-98.5 157.5,-76.5 38.5,-76.5"/>
<text text-anchor="start" x="80.12" y="-82.9" font-family="Times,serif" font-size="14.00">Player</text>
<polygon fill="none" stroke="black" points="38.5,-3.5 38.5,-76.5 157.5,-76.5 157.5,-3.5 38.5,-3.5"/>
<text text-anchor="start" x="41.5" y="-60.9" font-family="Times,serif" font-size="14.00">playerName :String</text>
<text text-anchor="start" x="41.5" y="-44.1" font-family="Times,serif" font-size="14.00">currentMove :String</text>
<text text-anchor="start" x="41.5" y="-27.3" font-family="Times,serif" font-size="14.00">winnings :int</text>
<text text-anchor="start" x="41.5" y="-10.5" font-family="Times,serif" font-size="14.00">victory :Boolean</text>
</g>
<!-- Player&#45;&gt;Game -->
<g id="edge1" class="edge">
<title>Player&#45;&gt;Game</title>
<path fill="none" stroke="black" d="M97.5,-103.12C97.5,-114.71 97.5,-127.03 97.5,-138.63"/>
<text text-anchor="middle" x="82.34" y="-126.03" font-family="Times,serif" font-size="14.00">game</text>
<text text-anchor="middle" x="72.04" y="-107.32" font-family="Times,serif" font-size="14.00">players *</text>
</g>
</g>
</svg>
